Coordinates
version=1
nRows=13
nColumns=40
inDegrees=yes

Units are S.I. units (second, meters, Newtons, ...)
Angles are in degrees.

endheader
time	pelvis_tilt	pelvis_list	pelvis_rotation	pelvis_tx	pelvis_ty	pelvis_tz	hip_flexion_r	hip_adduction_r	hip_rotation_r	knee_angle_r	knee_angle_r_beta	ankle_angle_r	subtalar_angle_r	mtp_angle_r	hip_flexion_l	hip_adduction_l	hip_rotation_l	knee_angle_l	knee_angle_l_beta	ankle_angle_l	subtalar_angle_l	mtp_angle_l	lumbar_extension	lumbar_bending	lumbar_rotation	arm_flex_r	arm_add_r	arm_rot_r	elbow_flex_r	pro_sup_r	wrist_flex_r	wrist_dev_r	arm_flex_l	arm_add_l	arm_rot_l	elbow_flex_l	pro_sup_l	wrist_flex_l	wrist_dev_l
     41.24500000	     -4.20740946	     -5.16762551	      2.76753809	      1.07923017	      0.92854886	      0.47248233	      6.48720566	     -1.27804199	    -12.98086514	     26.62177688	     26.62177688	     14.75559471	      0.83954518	     -7.40600033	     23.40433313	     -6.46489566	     -0.70120587	     24.63677428	     24.63677428	      8.65158797	    -12.99974020	      3.47373615	     -9.51871456	      4.80764220	      1.91000839	      6.26190997	    -18.51390166	     -5.48963716	     48.61088116	     45.18133865	      0.00000000	      0.00000000	     -0.35341144	    -12.59357798	    -10.55974406	     36.51487568	     45.59634537	      0.00000000	      0.00000000
     41.25885714	     -4.12910607	     -5.15153347	      2.45996518	      1.07847084	      0.92923378	      0.46903565	      7.79487139	     -1.96958523	    -12.50839298	     29.67281071	     29.67281071	     13.83928919	     -0.00593558	     -8.34651318	     22.82399763	     -6.38339830	     -1.22066309	     24.53522541	     24.53522541	      9.04682883	    -12.67024525	      3.18339242	     -9.57807059	      4.80455118	      1.89753821	      5.18334413	    -18.62944484	     -5.63253530	     47.86061892	     45.21608307	      0.00000000	      0.00000000	     -0.14222271	    -12.67525454	    -10.44739666	     36.87275012	     45.59955826	      0.00000000	      0.00000000
     41.27271429	     -4.06376756	     -5.13230087	      2.08121134	      1.07774181	      0.92976388	      0.46591614	      9.33886619	     -2.62240365	    -11.81435697	     33.03770770	     33.03770770	     12.73616138	     -1.08871614	     -9.33656852	     22.20576322	     -6.35255604	     -1.88546015	     24.37160268	     24.37160268	      9.47962134	    -12.22180128	      2.81058031	     -9.56704318	      4.70354151	      1.87481668	      4.12428255	    -18.64152602	     -5.80464816	     46.91887574	     45.25782169	      0.00000000	      0.00000000	      0.06804648	    -12.84166974	    -10.33305546	     37.30510933	     45.60023566	      0.00000000	      0.00000000
     41.28657143	     -3.93107193	     -5.21435507	      1.72122383	      1.07689428	      0.93029826	      0.46308740	     10.84195932	     -2.98551711	    -10.87345468	     36.19940481	     36.19940481	     10.38365388	     -3.39069435	    -12.82597194	     21.57984847	     -6.54638921	     -2.87497119	     24.28778710	     24.28778710	      9.78781456	    -11.21646418	      1.61635344	     -9.65531923	      4.73262478	      1.75946497	      3.71950948	    -18.24182270	     -7.30308811	     44.40719437	     45.44492730	      0.00000000	      0.00000000	     -0.05531080	    -13.31574611	     -9.06033132	     38.67316497	     45.51912753	      0.00000000	      0.00000000
     41.30042857	     -3.78687881	     -5.07176812	      1.39679675	      1.07587933	      0.93072247	      0.46017359	     12.61687235	     -3.76610692	    -10.31294056	     39.95467781	     39.95467781	      9.09406366	     -4.40750814	    -13.19611876	     20.91469008	     -6.36680011	     -3.48990804	     24.14845880	     24.14845880	     10.15752643	    -10.86104621	      1.35681000	     -9.77711567	      4.52483209	      1.47673339	      2.77312011	    -18.25352935	     -7.37722903	     43.76257410	     45.46918579	      0.00000000	      0.00000000	      0.27388049	    -13.57265294	     -9.02670410	     38.95831572	     45.52858621	      0.00000000	      0.00000000
     41.31428571	     -3.59953202	     -5.04047271	      1.10973781	      1.07486625	      0.93111964	      0.45750739	     14.36472509	     -4.32542847	     -9.74156189	     43.59663393	     43.59663393	      7.74873544	     -5.58938067	    -13.32694074	     20.20928626	     -6.32011055	     -4.05705552	     24.00412356	     24.00412356	     10.65022045	    -10.33040071	      0.98622512	     -9.90650711	      4.42275877	      1.17502129	      1.81737075	    -18.24322827	     -7.47050154	     43.02313281	     45.49757803	      0.00000000	      0.00000000	      0.63698312	    -13.85250952	     -8.98487987	     39.28809801	     45.53608216	      0.00000000	      0.00000000
     41.32814286	     -3.55075242	     -4.84458537	      0.74511775	      1.07361439	      0.93124296	      0.45519980	     16.39992356	     -4.91574161	     -8.95925007	     47.24436807	     47.24436807	      6.33504263	     -7.15310515	    -13.12415390	     19.69783249	     -6.19510032	     -5.00118766	     23.93494697	     23.93494697	     11.05768028	     -9.52933659	      0.49545882	     -9.91023150	      4.06728460	      0.96580405	      0.81458187	    -18.12977711	     -7.60621225	     42.08177084	     45.53585882	      0.00000000	      0.00000000	      1.07403694	    -14.20365739	     -8.89029636	     39.71872392	     45.54036761	      0.00000000	      0.00000000
     41.34200000	     -3.43209147	     -5.01117405	      0.40297624	      1.07242600	      0.93146742	      0.45354378	     18.28581813	     -4.85254081	     -8.15361898	     50.57319458	     50.57319458	      5.32945942	     -8.96890930	    -11.37773566	     19.24639744	     -6.71703724	     -6.56564683	     24.13368317	     24.13368317	     11.67780271	     -7.39420766	     -0.81055426	     -9.95559562	      4.06888465	      1.03803091	      0.16303102	    -17.80240410	     -8.55241636	     39.70633657	     45.68004936	      0.00000000	      0.00000000	      1.48025993	    -14.66523627	     -7.92879666	     40.60489273	     45.47841386	      0.00000000	      0.00000000
     41.35585714	     -3.26372279	     -4.76391200	      0.15734343	      1.07108861	      0.93181247	      0.45143265	     20.04971346	     -5.47120286	     -7.79897934	     53.63411513	     53.63411513	      4.32618604	     -9.89243563	    -10.93802733	     18.54857173	     -6.44081478	     -7.19860850	     23.90307287	     23.90307287	     12.02917132	     -6.92578293	     -1.03084884	    -10.09094835	      3.65243930	      0.43094808	     -0.63236029	    -17.61628520	     -8.72417585	     39.06084503	     45.71007396	      0.00000000	      0.00000000	      1.92933139	    -15.12435831	     -7.80724286	     40.79636613	     45.47974212	      0.00000000	      0.00000000
     41.36971429	     -3.13884564	     -4.73517849	     -0.13687405	      1.06976950	      0.93217465	      0.44994367	     21.91552227	     -5.67365758	     -7.40863898	     56.65092968	     56.65092968	      5.18937411	     -9.97328067	     -5.46853432	     17.94728651	     -6.61811092	     -8.42042679	     23.81108083	     23.81108083	     12.55511037	     -5.33944259	     -1.70999081	    -10.09981841	      3.42077498	      0.23046432	     -0.74950395	    -16.93430453	    -11.11712845	     36.05365709	     45.97066969	      0.00000000	      0.00000000	      2.52136816	    -15.93753563	     -5.36414817	     40.96553415	     45.33566510	      0.00000000	      0.00000000
     41.38357143	     -3.00013514	     -4.57892241	     -0.36517186	      1.06835469	      0.93264466	      0.44832641	     23.47391235	     -6.02230544	     -7.22436339	     58.79479985	     58.79479985	      4.52820357	    -10.92371741	     -5.20244852	     17.26748475	     -6.44109879	     -8.98677697	     23.52263683	     23.52263683	     12.88068439	     -4.86879050	     -1.87799949	    -10.18646441	      3.06210701	     -0.24613068	     -1.67079520	    -16.77723985	    -11.19255847	     35.60269931	     45.98609699	      0.00000000	      0.00000000	      3.13868121	    -16.31902529	     -5.37639909	     41.13492716	     45.35521048	      0.00000000	      0.00000000
     41.39742857	     -2.82555790	     -4.58879789	     -0.62101145	      1.06696086	      0.93326101	      0.44714592	     24.87125184	     -6.05642697	     -7.07399758	     60.47981682	     60.47981682	      4.46345175	    -11.66572149	     -3.78449553	     16.55402502	     -6.62022324	    -10.10588318	     23.29620387	     23.29620387	     13.32256131	     -3.36405814	     -2.45384456	    -10.31249807	      2.86295605	     -0.23753540	     -2.67109004	    -16.65463887	    -11.57679784	     34.55993062	     46.04376541	      0.00000000	      0.00000000	      4.24929689	    -16.56276858	     -4.89793869	     40.86589261	     45.35548679	      0.00000000	      0.00000000
     41.41128571	     -2.69997866	     -4.50239386	     -0.86150732	      1.06551439	      0.93391835	      0.44598169	     26.19804680	     -6.21900705	     -7.03773806	     61.69343674	     61.69343674	      4.73400377	    -11.97261239	     -2.21685118	     15.82028487	     -6.55523639	    -10.81896546	     22.88498682	     22.88498682	     13.62487914	     -2.56873084	     -2.70568418	    -10.37035540	      2.56163210	     -0.45511997	     -3.45707505	    -16.43923270	    -12.10165530	     33.62752727	     46.10675478	      0.00000000	      0.00000000	      5.40325686	    -16.89131966	     -4.11343573	     40.07927381	     45.33744566	      0.00000000	      0.00000000
